<mxfile host="Electron" agent="Mozilla/5.0 (Windows NT 10.0; Win64; x64) AppleWebKit/537.36 (KHTML, like Gecko) draw.io/27.0.2 Chrome/134.0.6998.205 Electron/35.3.0 Safari/537.36" version="27.0.2">
  <diagram name="1 oldal" id="k77zwRkmoE6mgJ9iQ8ox">
    <mxGraphModel dx="1678" dy="989" grid="1" gridSize="10" guides="1" tooltips="1" connect="1" arrows="1" fold="1" page="1" pageScale="1" pageWidth="827" pageHeight="1169" math="0" shadow="0">
      <root>
        <mxCell id="0" />
        <mxCell id="1" parent="0" />
        <mxCell id="XubYsLf60F2vqhypC5f5-1" value="Vendég" style="rounded=0;whiteSpace=wrap;html=1;" vertex="1" parent="1">
          <mxGeometry x="340" y="260" width="120" height="60" as="geometry" />
        </mxCell>
        <mxCell id="XubYsLf60F2vqhypC5f5-2" value="&lt;br&gt;&lt;span style=&quot;&quot; data-end=&quot;572&quot; data-start=&quot;560&quot;&gt;Foglalás&lt;/span&gt; " style="rounded=0;whiteSpace=wrap;html=1;" vertex="1" parent="1">
          <mxGeometry x="340" y="850" width="120" height="60" as="geometry" />
        </mxCell>
        <mxCell id="XubYsLf60F2vqhypC5f5-4" value="Szoba" style="rounded=0;whiteSpace=wrap;html=1;" vertex="1" parent="1">
          <mxGeometry x="340" y="480" width="120" height="60" as="geometry" />
        </mxCell>
        <mxCell id="XubYsLf60F2vqhypC5f5-5" value="Felhasználó&lt;div&gt;&lt;br&gt;&lt;/div&gt;" style="rounded=0;whiteSpace=wrap;html=1;" vertex="1" parent="1">
          <mxGeometry x="340" y="1220" width="120" height="60" as="geometry" />
        </mxCell>
        <mxCell id="XubYsLf60F2vqhypC5f5-6" value="Bejelentkezés" style="rounded=0;whiteSpace=wrap;html=1;" vertex="1" parent="1">
          <mxGeometry x="340" y="1670" width="120" height="60" as="geometry" />
        </mxCell>
        <mxCell id="XubYsLf60F2vqhypC5f5-7" value="ország" style="ellipse;whiteSpace=wrap;html=1;" vertex="1" parent="1">
          <mxGeometry x="180" y="190" width="100" height="50" as="geometry" />
        </mxCell>
        <mxCell id="XubYsLf60F2vqhypC5f5-8" value="érkezésDátuma" style="ellipse;whiteSpace=wrap;html=1;" vertex="1" parent="1">
          <mxGeometry x="520" y="200" width="100" height="50" as="geometry" />
        </mxCell>
        <mxCell id="XubYsLf60F2vqhypC5f5-9" value="nem" style="ellipse;whiteSpace=wrap;html=1;" vertex="1" parent="1">
          <mxGeometry x="180" y="110" width="100" height="50" as="geometry" />
        </mxCell>
        <mxCell id="XubYsLf60F2vqhypC5f5-10" value="név" style="ellipse;whiteSpace=wrap;html=1;" vertex="1" parent="1">
          <mxGeometry x="350" y="150" width="100" height="50" as="geometry" />
        </mxCell>
        <mxCell id="XubYsLf60F2vqhypC5f5-11" value="okmánySzám" style="ellipse;whiteSpace=wrap;html=1;" vertex="1" parent="1">
          <mxGeometry x="530" y="120" width="100" height="50" as="geometry" />
        </mxCell>
        <mxCell id="XubYsLf60F2vqhypC5f5-12" value="" style="endArrow=none;html=1;rounded=0;entryX=0.5;entryY=1;entryDx=0;entryDy=0;exitX=0.5;exitY=0;exitDx=0;exitDy=0;" edge="1" parent="1" source="XubYsLf60F2vqhypC5f5-1" target="XubYsLf60F2vqhypC5f5-10">
          <mxGeometry width="50" height="50" relative="1" as="geometry">
            <mxPoint x="390" y="360" as="sourcePoint" />
            <mxPoint x="440" y="310" as="targetPoint" />
          </mxGeometry>
        </mxCell>
        <mxCell id="XubYsLf60F2vqhypC5f5-13" value="" style="endArrow=none;html=1;rounded=0;entryX=0.5;entryY=1;entryDx=0;entryDy=0;exitX=0.5;exitY=0;exitDx=0;exitDy=0;" edge="1" parent="1" source="XubYsLf60F2vqhypC5f5-1" target="XubYsLf60F2vqhypC5f5-8">
          <mxGeometry width="50" height="50" relative="1" as="geometry">
            <mxPoint x="390" y="360" as="sourcePoint" />
            <mxPoint x="440" y="310" as="targetPoint" />
          </mxGeometry>
        </mxCell>
        <mxCell id="XubYsLf60F2vqhypC5f5-14" value="" style="endArrow=none;html=1;rounded=0;entryX=0.5;entryY=1;entryDx=0;entryDy=0;exitX=0.5;exitY=0;exitDx=0;exitDy=0;" edge="1" parent="1" source="XubYsLf60F2vqhypC5f5-1" target="XubYsLf60F2vqhypC5f5-7">
          <mxGeometry width="50" height="50" relative="1" as="geometry">
            <mxPoint x="390" y="360" as="sourcePoint" />
            <mxPoint x="440" y="310" as="targetPoint" />
          </mxGeometry>
        </mxCell>
        <mxCell id="XubYsLf60F2vqhypC5f5-15" value="" style="endArrow=none;html=1;rounded=0;entryX=0.5;entryY=1;entryDx=0;entryDy=0;exitX=0.5;exitY=0;exitDx=0;exitDy=0;" edge="1" parent="1" source="XubYsLf60F2vqhypC5f5-1" target="XubYsLf60F2vqhypC5f5-9">
          <mxGeometry width="50" height="50" relative="1" as="geometry">
            <mxPoint x="390" y="360" as="sourcePoint" />
            <mxPoint x="440" y="310" as="targetPoint" />
          </mxGeometry>
        </mxCell>
        <mxCell id="XubYsLf60F2vqhypC5f5-16" value="" style="endArrow=none;html=1;rounded=0;entryX=0.5;entryY=1;entryDx=0;entryDy=0;exitX=0.5;exitY=0;exitDx=0;exitDy=0;" edge="1" parent="1" source="XubYsLf60F2vqhypC5f5-1" target="XubYsLf60F2vqhypC5f5-11">
          <mxGeometry width="50" height="50" relative="1" as="geometry">
            <mxPoint x="390" y="360" as="sourcePoint" />
            <mxPoint x="440" y="310" as="targetPoint" />
          </mxGeometry>
        </mxCell>
        <mxCell id="XubYsLf60F2vqhypC5f5-18" value="&lt;em data-end=&quot;330&quot; data-start=&quot;320&quot;&gt;vendégID&lt;/em&gt; (kulcs)" style="rhombus;whiteSpace=wrap;html=1;" vertex="1" parent="1">
          <mxGeometry x="740" y="260" width="70" height="60" as="geometry" />
        </mxCell>
        <mxCell id="XubYsLf60F2vqhypC5f5-19" value="" style="endArrow=none;html=1;rounded=0;entryX=0;entryY=0.5;entryDx=0;entryDy=0;exitX=1;exitY=0.5;exitDx=0;exitDy=0;" edge="1" parent="1" source="XubYsLf60F2vqhypC5f5-1" target="XubYsLf60F2vqhypC5f5-18">
          <mxGeometry width="50" height="50" relative="1" as="geometry">
            <mxPoint x="390" y="360" as="sourcePoint" />
            <mxPoint x="440" y="310" as="targetPoint" />
          </mxGeometry>
        </mxCell>
        <mxCell id="XubYsLf60F2vqhypC5f5-20" value="" style="endArrow=none;html=1;rounded=0;entryX=0.5;entryY=1;entryDx=0;entryDy=0;exitX=0.5;exitY=0;exitDx=0;exitDy=0;" edge="1" parent="1" source="XubYsLf60F2vqhypC5f5-4" target="XubYsLf60F2vqhypC5f5-18">
          <mxGeometry width="50" height="50" relative="1" as="geometry">
            <mxPoint x="390" y="460" as="sourcePoint" />
            <mxPoint x="440" y="410" as="targetPoint" />
          </mxGeometry>
        </mxCell>
        <mxCell id="XubYsLf60F2vqhypC5f5-21" value="ágyszám" style="ellipse;whiteSpace=wrap;html=1;" vertex="1" parent="1">
          <mxGeometry x="230" y="570" width="100" height="50" as="geometry" />
        </mxCell>
        <mxCell id="XubYsLf60F2vqhypC5f5-22" value="típus&amp;nbsp;" style="ellipse;whiteSpace=wrap;html=1;" vertex="1" parent="1">
          <mxGeometry x="350" y="600" width="100" height="50" as="geometry" />
        </mxCell>
        <mxCell id="XubYsLf60F2vqhypC5f5-23" value="foglaltságStátusz" style="ellipse;whiteSpace=wrap;html=1;" vertex="1" parent="1">
          <mxGeometry x="470" y="570" width="100" height="50" as="geometry" />
        </mxCell>
        <mxCell id="XubYsLf60F2vqhypC5f5-25" value="" style="endArrow=none;html=1;rounded=0;exitX=0.5;exitY=0;exitDx=0;exitDy=0;entryX=0.5;entryY=1;entryDx=0;entryDy=0;" edge="1" parent="1" source="XubYsLf60F2vqhypC5f5-21" target="XubYsLf60F2vqhypC5f5-4">
          <mxGeometry width="50" height="50" relative="1" as="geometry">
            <mxPoint x="390" y="460" as="sourcePoint" />
            <mxPoint x="440" y="410" as="targetPoint" />
          </mxGeometry>
        </mxCell>
        <mxCell id="XubYsLf60F2vqhypC5f5-26" value="" style="endArrow=none;html=1;rounded=0;exitX=0.5;exitY=0;exitDx=0;exitDy=0;entryX=0.5;entryY=1;entryDx=0;entryDy=0;" edge="1" parent="1" source="XubYsLf60F2vqhypC5f5-22" target="XubYsLf60F2vqhypC5f5-4">
          <mxGeometry width="50" height="50" relative="1" as="geometry">
            <mxPoint x="390" y="460" as="sourcePoint" />
            <mxPoint x="440" y="410" as="targetPoint" />
          </mxGeometry>
        </mxCell>
        <mxCell id="XubYsLf60F2vqhypC5f5-27" value="" style="endArrow=none;html=1;rounded=0;exitX=0.5;exitY=0;exitDx=0;exitDy=0;entryX=0.5;entryY=1;entryDx=0;entryDy=0;" edge="1" parent="1" source="XubYsLf60F2vqhypC5f5-23" target="XubYsLf60F2vqhypC5f5-4">
          <mxGeometry width="50" height="50" relative="1" as="geometry">
            <mxPoint x="390" y="460" as="sourcePoint" />
            <mxPoint x="440" y="410" as="targetPoint" />
          </mxGeometry>
        </mxCell>
        <mxCell id="XubYsLf60F2vqhypC5f5-28" value="&lt;em data-end=&quot;448&quot; data-start=&quot;437&quot;&gt;szobaSzám&lt;/em&gt; (kulcs)" style="rhombus;whiteSpace=wrap;html=1;" vertex="1" parent="1">
          <mxGeometry x="75" y="480" width="70" height="60" as="geometry" />
        </mxCell>
        <mxCell id="XubYsLf60F2vqhypC5f5-29" value="" style="endArrow=none;html=1;rounded=0;entryX=0.5;entryY=1;entryDx=0;entryDy=0;exitX=0.5;exitY=0;exitDx=0;exitDy=0;" edge="1" parent="1" source="XubYsLf60F2vqhypC5f5-2" target="XubYsLf60F2vqhypC5f5-28">
          <mxGeometry width="50" height="50" relative="1" as="geometry">
            <mxPoint x="390" y="560" as="sourcePoint" />
            <mxPoint x="440" y="510" as="targetPoint" />
          </mxGeometry>
        </mxCell>
        <mxCell id="XubYsLf60F2vqhypC5f5-30" value="" style="endArrow=none;html=1;rounded=0;exitX=1;exitY=0.5;exitDx=0;exitDy=0;entryX=0;entryY=0.5;entryDx=0;entryDy=0;" edge="1" parent="1" source="XubYsLf60F2vqhypC5f5-28" target="XubYsLf60F2vqhypC5f5-4">
          <mxGeometry width="50" height="50" relative="1" as="geometry">
            <mxPoint x="350" y="630" as="sourcePoint" />
            <mxPoint x="400" y="580" as="targetPoint" />
          </mxGeometry>
        </mxCell>
        <mxCell id="XubYsLf60F2vqhypC5f5-31" value="érkezésDátuma" style="ellipse;whiteSpace=wrap;html=1;" vertex="1" parent="1">
          <mxGeometry x="270" y="950" width="100" height="50" as="geometry" />
        </mxCell>
        <mxCell id="XubYsLf60F2vqhypC5f5-32" value="távozásDátuma" style="ellipse;whiteSpace=wrap;html=1;" vertex="1" parent="1">
          <mxGeometry x="430" y="950" width="100" height="50" as="geometry" />
        </mxCell>
        <mxCell id="XubYsLf60F2vqhypC5f5-33" value="" style="endArrow=none;html=1;rounded=0;exitX=0.5;exitY=0;exitDx=0;exitDy=0;entryX=0.5;entryY=1;entryDx=0;entryDy=0;" edge="1" parent="1" source="XubYsLf60F2vqhypC5f5-31" target="XubYsLf60F2vqhypC5f5-2">
          <mxGeometry width="50" height="50" relative="1" as="geometry">
            <mxPoint x="350" y="870" as="sourcePoint" />
            <mxPoint x="400" y="820" as="targetPoint" />
          </mxGeometry>
        </mxCell>
        <mxCell id="XubYsLf60F2vqhypC5f5-34" value="" style="endArrow=none;html=1;rounded=0;entryX=0.5;entryY=1;entryDx=0;entryDy=0;exitX=0.5;exitY=0;exitDx=0;exitDy=0;" edge="1" parent="1" source="XubYsLf60F2vqhypC5f5-32" target="XubYsLf60F2vqhypC5f5-2">
          <mxGeometry width="50" height="50" relative="1" as="geometry">
            <mxPoint x="350" y="870" as="sourcePoint" />
            <mxPoint x="400" y="820" as="targetPoint" />
          </mxGeometry>
        </mxCell>
        <mxCell id="XubYsLf60F2vqhypC5f5-35" value="vendégID (idegen kulcs)" style="rhombus;whiteSpace=wrap;html=1;" vertex="1" parent="1">
          <mxGeometry x="610" y="845" width="70" height="70" as="geometry" />
        </mxCell>
        <mxCell id="XubYsLf60F2vqhypC5f5-36" value="&lt;em data-end=&quot;651&quot; data-start=&quot;639&quot;&gt;foglalásID&lt;/em&gt; (kulcs)" style="rhombus;whiteSpace=wrap;html=1;" vertex="1" parent="1">
          <mxGeometry x="120" y="845" width="70" height="70" as="geometry" />
        </mxCell>
        <mxCell id="XubYsLf60F2vqhypC5f5-37" value="szobaSzám (idegen kulcs)" style="rhombus;whiteSpace=wrap;html=1;" vertex="1" parent="1">
          <mxGeometry x="365" y="1000" width="70" height="70" as="geometry" />
        </mxCell>
        <mxCell id="XubYsLf60F2vqhypC5f5-38" value="" style="endArrow=none;html=1;rounded=0;entryX=0.5;entryY=1;entryDx=0;entryDy=0;exitX=0.5;exitY=0;exitDx=0;exitDy=0;" edge="1" parent="1" source="XubYsLf60F2vqhypC5f5-37" target="XubYsLf60F2vqhypC5f5-2">
          <mxGeometry width="50" height="50" relative="1" as="geometry">
            <mxPoint x="350" y="990" as="sourcePoint" />
            <mxPoint x="400" y="940" as="targetPoint" />
          </mxGeometry>
        </mxCell>
        <mxCell id="XubYsLf60F2vqhypC5f5-39" value="" style="endArrow=none;html=1;rounded=0;entryX=0;entryY=0.5;entryDx=0;entryDy=0;exitX=1;exitY=0.5;exitDx=0;exitDy=0;" edge="1" parent="1" source="XubYsLf60F2vqhypC5f5-36" target="XubYsLf60F2vqhypC5f5-2">
          <mxGeometry width="50" height="50" relative="1" as="geometry">
            <mxPoint x="350" y="990" as="sourcePoint" />
            <mxPoint x="400" y="940" as="targetPoint" />
          </mxGeometry>
        </mxCell>
        <mxCell id="XubYsLf60F2vqhypC5f5-40" value="" style="endArrow=none;html=1;rounded=0;entryX=0;entryY=0.5;entryDx=0;entryDy=0;exitX=1;exitY=0.5;exitDx=0;exitDy=0;" edge="1" parent="1" source="XubYsLf60F2vqhypC5f5-2" target="XubYsLf60F2vqhypC5f5-35">
          <mxGeometry width="50" height="50" relative="1" as="geometry">
            <mxPoint x="350" y="990" as="sourcePoint" />
            <mxPoint x="400" y="940" as="targetPoint" />
          </mxGeometry>
        </mxCell>
        <mxCell id="XubYsLf60F2vqhypC5f5-41" value="" style="endArrow=none;html=1;rounded=0;entryX=0.5;entryY=1;entryDx=0;entryDy=0;exitX=0.5;exitY=0;exitDx=0;exitDy=0;" edge="1" parent="1" source="XubYsLf60F2vqhypC5f5-5" target="XubYsLf60F2vqhypC5f5-35">
          <mxGeometry width="50" height="50" relative="1" as="geometry">
            <mxPoint x="350" y="1100" as="sourcePoint" />
            <mxPoint x="400" y="1050" as="targetPoint" />
          </mxGeometry>
        </mxCell>
        <mxCell id="XubYsLf60F2vqhypC5f5-42" value="&lt;em data-end=&quot;818&quot; data-start=&quot;802&quot;&gt;felhasználóNév&lt;/em&gt; (kulcs)" style="rhombus;whiteSpace=wrap;html=1;" vertex="1" parent="1">
          <mxGeometry x="50" y="1215" width="70" height="70" as="geometry" />
        </mxCell>
        <mxCell id="XubYsLf60F2vqhypC5f5-43" value="jelszó" style="ellipse;whiteSpace=wrap;html=1;" vertex="1" parent="1">
          <mxGeometry x="230" y="1340" width="110" height="50" as="geometry" />
        </mxCell>
        <mxCell id="XubYsLf60F2vqhypC5f5-44" value="jogosultságiSzint" style="ellipse;whiteSpace=wrap;html=1;" vertex="1" parent="1">
          <mxGeometry x="345" y="1360" width="110" height="50" as="geometry" />
        </mxCell>
        <mxCell id="XubYsLf60F2vqhypC5f5-45" value="utolsóBejelentkezés" style="ellipse;whiteSpace=wrap;html=1;" vertex="1" parent="1">
          <mxGeometry x="465" y="1340" width="110" height="50" as="geometry" />
        </mxCell>
        <mxCell id="XubYsLf60F2vqhypC5f5-46" value="" style="endArrow=none;html=1;rounded=0;exitX=0.5;exitY=0;exitDx=0;exitDy=0;entryX=0.5;entryY=1;entryDx=0;entryDy=0;" edge="1" parent="1" source="XubYsLf60F2vqhypC5f5-43" target="XubYsLf60F2vqhypC5f5-5">
          <mxGeometry width="50" height="50" relative="1" as="geometry">
            <mxPoint x="350" y="1100" as="sourcePoint" />
            <mxPoint x="400" y="1050" as="targetPoint" />
          </mxGeometry>
        </mxCell>
        <mxCell id="XubYsLf60F2vqhypC5f5-47" value="" style="endArrow=none;html=1;rounded=0;entryX=0.5;entryY=1;entryDx=0;entryDy=0;exitX=0.5;exitY=0;exitDx=0;exitDy=0;" edge="1" parent="1" source="XubYsLf60F2vqhypC5f5-44" target="XubYsLf60F2vqhypC5f5-5">
          <mxGeometry width="50" height="50" relative="1" as="geometry">
            <mxPoint x="350" y="1100" as="sourcePoint" />
            <mxPoint x="400" y="1050" as="targetPoint" />
          </mxGeometry>
        </mxCell>
        <mxCell id="XubYsLf60F2vqhypC5f5-48" value="" style="endArrow=none;html=1;rounded=0;exitX=0.5;exitY=0;exitDx=0;exitDy=0;entryX=0.5;entryY=1;entryDx=0;entryDy=0;" edge="1" parent="1" source="XubYsLf60F2vqhypC5f5-45" target="XubYsLf60F2vqhypC5f5-5">
          <mxGeometry width="50" height="50" relative="1" as="geometry">
            <mxPoint x="350" y="1100" as="sourcePoint" />
            <mxPoint x="400" y="1050" as="targetPoint" />
          </mxGeometry>
        </mxCell>
        <mxCell id="XubYsLf60F2vqhypC5f5-49" value="" style="endArrow=none;html=1;rounded=0;entryX=0;entryY=0.5;entryDx=0;entryDy=0;exitX=1;exitY=0.5;exitDx=0;exitDy=0;" edge="1" parent="1" source="XubYsLf60F2vqhypC5f5-42" target="XubYsLf60F2vqhypC5f5-5">
          <mxGeometry width="50" height="50" relative="1" as="geometry">
            <mxPoint x="350" y="1460" as="sourcePoint" />
            <mxPoint x="400" y="1410" as="targetPoint" />
          </mxGeometry>
        </mxCell>
        <mxCell id="XubYsLf60F2vqhypC5f5-50" value="" style="endArrow=none;html=1;rounded=0;entryX=0.5;entryY=1;entryDx=0;entryDy=0;exitX=0.5;exitY=0;exitDx=0;exitDy=0;" edge="1" parent="1" source="XubYsLf60F2vqhypC5f5-6" target="XubYsLf60F2vqhypC5f5-42">
          <mxGeometry width="50" height="50" relative="1" as="geometry">
            <mxPoint x="350" y="1460" as="sourcePoint" />
            <mxPoint x="400" y="1410" as="targetPoint" />
          </mxGeometry>
        </mxCell>
        <mxCell id="XubYsLf60F2vqhypC5f5-51" value="időpont" style="ellipse;whiteSpace=wrap;html=1;" vertex="1" parent="1">
          <mxGeometry x="280" y="1780" width="110" height="46" as="geometry" />
        </mxCell>
        <mxCell id="XubYsLf60F2vqhypC5f5-52" value="IPcím" style="ellipse;whiteSpace=wrap;html=1;" vertex="1" parent="1">
          <mxGeometry x="410" y="1780" width="110" height="46" as="geometry" />
        </mxCell>
        <mxCell id="XubYsLf60F2vqhypC5f5-53" value="" style="endArrow=none;html=1;rounded=0;exitX=0.5;exitY=0;exitDx=0;exitDy=0;entryX=0.5;entryY=1;entryDx=0;entryDy=0;" edge="1" parent="1" source="XubYsLf60F2vqhypC5f5-51" target="XubYsLf60F2vqhypC5f5-6">
          <mxGeometry width="50" height="50" relative="1" as="geometry">
            <mxPoint x="350" y="1690" as="sourcePoint" />
            <mxPoint x="400" y="1640" as="targetPoint" />
          </mxGeometry>
        </mxCell>
        <mxCell id="XubYsLf60F2vqhypC5f5-54" value="" style="endArrow=none;html=1;rounded=0;entryX=0.5;entryY=0;entryDx=0;entryDy=0;exitX=0.5;exitY=1;exitDx=0;exitDy=0;" edge="1" parent="1" source="XubYsLf60F2vqhypC5f5-6" target="XubYsLf60F2vqhypC5f5-52">
          <mxGeometry width="50" height="50" relative="1" as="geometry">
            <mxPoint x="350" y="1690" as="sourcePoint" />
            <mxPoint x="400" y="1640" as="targetPoint" />
          </mxGeometry>
        </mxCell>
        <mxCell id="XubYsLf60F2vqhypC5f5-55" value="&lt;em data-end=&quot;941&quot; data-start=&quot;924&quot;&gt;bejelentkezésID&lt;/em&gt; (kulcs)" style="rhombus;whiteSpace=wrap;html=1;" vertex="1" parent="1">
          <mxGeometry x="105" y="1665" width="75" height="70" as="geometry" />
        </mxCell>
        <mxCell id="XubYsLf60F2vqhypC5f5-56" value="felhasználóNév (idegen kulcs)" style="rhombus;whiteSpace=wrap;html=1;" vertex="1" parent="1">
          <mxGeometry x="620" y="1665" width="75" height="70" as="geometry" />
        </mxCell>
        <mxCell id="XubYsLf60F2vqhypC5f5-57" value="" style="endArrow=none;html=1;rounded=0;exitX=1;exitY=0.5;exitDx=0;exitDy=0;entryX=0;entryY=0.5;entryDx=0;entryDy=0;" edge="1" parent="1" source="XubYsLf60F2vqhypC5f5-55" target="XubYsLf60F2vqhypC5f5-6">
          <mxGeometry width="50" height="50" relative="1" as="geometry">
            <mxPoint x="350" y="1690" as="sourcePoint" />
            <mxPoint x="400" y="1640" as="targetPoint" />
          </mxGeometry>
        </mxCell>
        <mxCell id="XubYsLf60F2vqhypC5f5-58" value="" style="endArrow=none;html=1;rounded=0;entryX=0;entryY=0.5;entryDx=0;entryDy=0;exitX=1;exitY=0.5;exitDx=0;exitDy=0;" edge="1" parent="1" source="XubYsLf60F2vqhypC5f5-6" target="XubYsLf60F2vqhypC5f5-56">
          <mxGeometry width="50" height="50" relative="1" as="geometry">
            <mxPoint x="350" y="1690" as="sourcePoint" />
            <mxPoint x="400" y="1640" as="targetPoint" />
          </mxGeometry>
        </mxCell>
      </root>
    </mxGraphModel>
  </diagram>
</mxfile>
